# xmcd
#
# Track frame offsets: 
#        150
#        13212
#        30915
#        44550
#        58417
#        69127
#        81242
#        102397
#        113247
#        125542
#
# Disc length: 1858 seconds
#
# Revision: 5
# Processed by: cddbd v1.5.2PL0 Copyright (c) Steve Scherf et al.
# Submitted via: ExactAudioCopy v0.95b4
#
DISCID=8607400a
DTITLE=Tanya Tucker - The Best Of My Love
DYEAR=1992
DGENRE=Country
TTITLE0=Delta Dawn
TTITLE1=The Best Of My Love
TTITLE2=Teach Me The Words To Your Song
TTITLE3=What's Your Mama's Name
TTITLE4=He's All I Got
TTITLE5=Song Man
TTITLE6=How Can I Tell Him
TTITLE7=Would You Lay With Me ( In A Field Of Stone )
TTITLE8=Love's The Answer
TTITLE9=Blood Red Goin' Down
EXTD=
EXTT0=
EXTT1=
EXTT2=
EXTT3=
EXTT4=
EXTT5=
EXTT6=
EXTT7=
EXTT8=
EXTT9=
PLAYORDER=
